<mxfile host="65bd71144e">
    <diagram name="Page-1" id="SljX20cbyxJMYk8kk5WV">
        <mxGraphModel dx="1477" dy="513" grid="1" gridSize="10" guides="1" tooltips="1" connect="1" arrows="1" fold="1" page="1" pageScale="1" pageWidth="827" pageHeight="1169" math="0" shadow="0">
            <root>
                <mxCell id="0"/>
                <mxCell id="1" parent="0"/>
                <mxCell id="pvXdeUtD5-f6CTb_NM24-2" value="Compnay" style="swimlane;whiteSpace=wrap;html=1;" parent="1" vertex="1">
                    <mxGeometry x="70" y="160" width="160" height="140" as="geometry"/>
                </mxCell>
                <mxCell id="pvXdeUtD5-f6CTb_NM24-4" value="name" style="text;html=1;align=center;verticalAlign=middle;resizable=0;points=[];autosize=1;strokeColor=none;fillColor=none;" parent="pvXdeUtD5-f6CTb_NM24-2" vertex="1">
                    <mxGeometry x="55" y="70" width="50" height="30" as="geometry"/>
                </mxCell>
                <mxCell id="pvXdeUtD5-f6CTb_NM24-11" value="id" style="text;html=1;align=center;verticalAlign=middle;resizable=0;points=[];autosize=1;strokeColor=none;fillColor=none;" parent="pvXdeUtD5-f6CTb_NM24-2" vertex="1">
                    <mxGeometry x="65" y="40" width="30" height="30" as="geometry"/>
                </mxCell>
                <mxCell id="pvXdeUtD5-f6CTb_NM24-32" value="created_by_id" style="text;html=1;align=center;verticalAlign=middle;resizable=0;points=[];autosize=1;strokeColor=none;fillColor=none;" parent="pvXdeUtD5-f6CTb_NM24-2" vertex="1">
                    <mxGeometry x="30" y="100" width="100" height="30" as="geometry"/>
                </mxCell>
                <mxCell id="pvXdeUtD5-f6CTb_NM24-6" value="Complex" style="swimlane;whiteSpace=wrap;html=1;" parent="1" vertex="1">
                    <mxGeometry x="380" y="320" width="180" height="162" as="geometry"/>
                </mxCell>
                <mxCell id="pvXdeUtD5-f6CTb_NM24-10" value="id" style="text;html=1;align=center;verticalAlign=middle;resizable=0;points=[];autosize=1;strokeColor=none;fillColor=none;" parent="pvXdeUtD5-f6CTb_NM24-6" vertex="1">
                    <mxGeometry x="75" y="32" width="30" height="30" as="geometry"/>
                </mxCell>
                <mxCell id="pvXdeUtD5-f6CTb_NM24-8" value="name" style="text;html=1;align=center;verticalAlign=middle;resizable=0;points=[];autosize=1;strokeColor=none;fillColor=none;" parent="pvXdeUtD5-f6CTb_NM24-6" vertex="1">
                    <mxGeometry x="65" y="62" width="50" height="30" as="geometry"/>
                </mxCell>
                <mxCell id="pvXdeUtD5-f6CTb_NM24-17" value="address" style="text;html=1;align=center;verticalAlign=middle;resizable=0;points=[];autosize=1;strokeColor=none;fillColor=none;" parent="pvXdeUtD5-f6CTb_NM24-6" vertex="1">
                    <mxGeometry x="55" y="92" width="70" height="30" as="geometry"/>
                </mxCell>
                <mxCell id="pvXdeUtD5-f6CTb_NM24-9" value="company_id" style="text;html=1;align=center;verticalAlign=middle;resizable=0;points=[];autosize=1;strokeColor=none;fillColor=none;" parent="pvXdeUtD5-f6CTb_NM24-6" vertex="1">
                    <mxGeometry x="45" y="122" width="90" height="30" as="geometry"/>
                </mxCell>
                <mxCell id="pvXdeUtD5-f6CTb_NM24-49" style="edgeStyle=orthogonalEdgeStyle;rounded=0;orthogonalLoop=1;jettySize=auto;html=1;entryX=0.437;entryY=0.012;entryDx=0;entryDy=0;entryPerimeter=0;" parent="1" source="pvXdeUtD5-f6CTb_NM24-13" target="pvXdeUtD5-f6CTb_NM24-50" edge="1">
                    <mxGeometry relative="1" as="geometry">
                        <mxPoint x="140" y="730" as="targetPoint"/>
                    </mxGeometry>
                </mxCell>
                <mxCell id="pvXdeUtD5-f6CTb_NM24-13" value="Room" style="swimlane;whiteSpace=wrap;html=1;" parent="1" vertex="1">
                    <mxGeometry x="80" y="410" width="180" height="220" as="geometry"/>
                </mxCell>
                <mxCell id="pvXdeUtD5-f6CTb_NM24-14" value="id" style="text;html=1;align=center;verticalAlign=middle;resizable=0;points=[];autosize=1;strokeColor=none;fillColor=none;" parent="pvXdeUtD5-f6CTb_NM24-13" vertex="1">
                    <mxGeometry x="75" y="32" width="30" height="30" as="geometry"/>
                </mxCell>
                <mxCell id="pvXdeUtD5-f6CTb_NM24-15" value="number" style="text;html=1;align=center;verticalAlign=middle;resizable=0;points=[];autosize=1;strokeColor=none;fillColor=none;" parent="pvXdeUtD5-f6CTb_NM24-13" vertex="1">
                    <mxGeometry x="60" y="62" width="60" height="30" as="geometry"/>
                </mxCell>
                <mxCell id="pvXdeUtD5-f6CTb_NM24-16" value="company_id" style="text;html=1;align=center;verticalAlign=middle;resizable=0;points=[];autosize=1;strokeColor=none;fillColor=none;" parent="pvXdeUtD5-f6CTb_NM24-13" vertex="1">
                    <mxGeometry x="45" y="152" width="90" height="30" as="geometry"/>
                </mxCell>
                <mxCell id="pvXdeUtD5-f6CTb_NM24-18" value="price" style="text;html=1;align=center;verticalAlign=middle;resizable=0;points=[];autosize=1;strokeColor=none;fillColor=none;" parent="pvXdeUtD5-f6CTb_NM24-13" vertex="1">
                    <mxGeometry x="65" y="92" width="50" height="30" as="geometry"/>
                </mxCell>
                <mxCell id="pvXdeUtD5-f6CTb_NM24-19" value="kv" style="text;html=1;align=center;verticalAlign=middle;resizable=0;points=[];autosize=1;strokeColor=none;fillColor=none;" parent="pvXdeUtD5-f6CTb_NM24-13" vertex="1">
                    <mxGeometry x="70" y="122" width="40" height="30" as="geometry"/>
                </mxCell>
                <mxCell id="pvXdeUtD5-f6CTb_NM24-20" value="complex_id" style="text;html=1;align=center;verticalAlign=middle;resizable=0;points=[];autosize=1;strokeColor=none;fillColor=none;" parent="pvXdeUtD5-f6CTb_NM24-13" vertex="1">
                    <mxGeometry x="50" y="182" width="80" height="30" as="geometry"/>
                </mxCell>
                <mxCell id="pvXdeUtD5-f6CTb_NM24-25" value="Banks" style="swimlane;whiteSpace=wrap;html=1;startSize=23;" parent="1" vertex="1">
                    <mxGeometry x="640" y="482" width="160" height="180" as="geometry"/>
                </mxCell>
                <mxCell id="pvXdeUtD5-f6CTb_NM24-38" value="id" style="text;html=1;align=center;verticalAlign=middle;resizable=0;points=[];autosize=1;strokeColor=none;fillColor=none;" parent="pvXdeUtD5-f6CTb_NM24-25" vertex="1">
                    <mxGeometry x="59" y="30" width="30" height="30" as="geometry"/>
                </mxCell>
                <mxCell id="pvXdeUtD5-f6CTb_NM24-39" value="name" style="text;html=1;align=center;verticalAlign=middle;resizable=0;points=[];autosize=1;strokeColor=none;fillColor=none;" parent="pvXdeUtD5-f6CTb_NM24-25" vertex="1">
                    <mxGeometry x="49" y="53" width="50" height="30" as="geometry"/>
                </mxCell>
                <mxCell id="pvXdeUtD5-f6CTb_NM24-40" value="max_loan" style="text;html=1;align=center;verticalAlign=middle;resizable=0;points=[];autosize=1;strokeColor=none;fillColor=none;" parent="pvXdeUtD5-f6CTb_NM24-25" vertex="1">
                    <mxGeometry x="35" y="76" width="80" height="30" as="geometry"/>
                </mxCell>
                <mxCell id="pvXdeUtD5-f6CTb_NM24-41" value="starting_payment" style="text;html=1;align=center;verticalAlign=middle;resizable=0;points=[];autosize=1;strokeColor=none;fillColor=none;" parent="pvXdeUtD5-f6CTb_NM24-25" vertex="1">
                    <mxGeometry x="20" y="120" width="120" height="30" as="geometry"/>
                </mxCell>
                <mxCell id="pvXdeUtD5-f6CTb_NM24-42" value="service_fee" style="text;html=1;align=center;verticalAlign=middle;resizable=0;points=[];autosize=1;strokeColor=none;fillColor=none;" parent="pvXdeUtD5-f6CTb_NM24-25" vertex="1">
                    <mxGeometry x="39" y="144" width="80" height="30" as="geometry"/>
                </mxCell>
                <mxCell id="pvXdeUtD5-f6CTb_NM24-43" value="image" style="text;html=1;align=center;verticalAlign=middle;resizable=0;points=[];autosize=1;strokeColor=none;fillColor=none;" parent="pvXdeUtD5-f6CTb_NM24-25" vertex="1">
                    <mxGeometry x="45" y="100" width="60" height="30" as="geometry"/>
                </mxCell>
                <mxCell id="pvXdeUtD5-f6CTb_NM24-26" value="Admin" style="swimlane;whiteSpace=wrap;html=1;" parent="1" vertex="1">
                    <mxGeometry x="350" y="90" width="200" height="170" as="geometry"/>
                </mxCell>
                <mxCell id="pvXdeUtD5-f6CTb_NM24-28" value="username" style="text;html=1;align=center;verticalAlign=middle;resizable=0;points=[];autosize=1;strokeColor=none;fillColor=none;" parent="pvXdeUtD5-f6CTb_NM24-26" vertex="1">
                    <mxGeometry x="60" y="68" width="80" height="30" as="geometry"/>
                </mxCell>
                <mxCell id="pvXdeUtD5-f6CTb_NM24-27" value="id" style="text;html=1;align=center;verticalAlign=middle;resizable=0;points=[];autosize=1;strokeColor=none;fillColor=none;" parent="pvXdeUtD5-f6CTb_NM24-26" vertex="1">
                    <mxGeometry x="85" y="38" width="30" height="30" as="geometry"/>
                </mxCell>
                <mxCell id="pvXdeUtD5-f6CTb_NM24-29" value="email" style="text;html=1;align=center;verticalAlign=middle;resizable=0;points=[];autosize=1;strokeColor=none;fillColor=none;" parent="pvXdeUtD5-f6CTb_NM24-26" vertex="1">
                    <mxGeometry x="75" y="98" width="50" height="30" as="geometry"/>
                </mxCell>
                <mxCell id="pvXdeUtD5-f6CTb_NM24-30" value="password" style="text;html=1;align=center;verticalAlign=middle;resizable=0;points=[];autosize=1;strokeColor=none;fillColor=none;" parent="pvXdeUtD5-f6CTb_NM24-26" vertex="1">
                    <mxGeometry x="65" y="128" width="70" height="30" as="geometry"/>
                </mxCell>
                <mxCell id="pvXdeUtD5-f6CTb_NM24-33" style="edgeStyle=orthogonalEdgeStyle;rounded=0;orthogonalLoop=1;jettySize=auto;html=1;entryX=1;entryY=0.667;entryDx=0;entryDy=0;entryPerimeter=0;" parent="1" source="pvXdeUtD5-f6CTb_NM24-27" target="pvXdeUtD5-f6CTb_NM24-32" edge="1">
                    <mxGeometry relative="1" as="geometry"/>
                </mxCell>
                <mxCell id="pvXdeUtD5-f6CTb_NM24-35" style="edgeStyle=orthogonalEdgeStyle;rounded=0;orthogonalLoop=1;jettySize=auto;html=1;entryX=0;entryY=0.648;entryDx=0;entryDy=0;entryPerimeter=0;" parent="1" source="pvXdeUtD5-f6CTb_NM24-11" target="pvXdeUtD5-f6CTb_NM24-9" edge="1">
                    <mxGeometry relative="1" as="geometry">
                        <mxPoint x="280" y="370" as="targetPoint"/>
                    </mxGeometry>
                </mxCell>
                <mxCell id="pvXdeUtD5-f6CTb_NM24-36" style="edgeStyle=orthogonalEdgeStyle;rounded=0;orthogonalLoop=1;jettySize=auto;html=1;entryX=-0.043;entryY=0.686;entryDx=0;entryDy=0;entryPerimeter=0;" parent="1" source="pvXdeUtD5-f6CTb_NM24-11" target="pvXdeUtD5-f6CTb_NM24-16" edge="1">
                    <mxGeometry relative="1" as="geometry">
                        <mxPoint x="40" y="580" as="targetPoint"/>
                        <Array as="points">
                            <mxPoint x="40" y="215"/>
                            <mxPoint x="40" y="583"/>
                        </Array>
                    </mxGeometry>
                </mxCell>
                <mxCell id="pvXdeUtD5-f6CTb_NM24-37" style="edgeStyle=orthogonalEdgeStyle;rounded=0;orthogonalLoop=1;jettySize=auto;html=1;entryX=1.018;entryY=0.6;entryDx=0;entryDy=0;entryPerimeter=0;" parent="1" source="pvXdeUtD5-f6CTb_NM24-10" target="pvXdeUtD5-f6CTb_NM24-20" edge="1">
                    <mxGeometry relative="1" as="geometry">
                        <mxPoint x="320" y="610" as="targetPoint"/>
                        <Array as="points">
                            <mxPoint x="320" y="367"/>
                            <mxPoint x="320" y="610"/>
                        </Array>
                    </mxGeometry>
                </mxCell>
                <mxCell id="pvXdeUtD5-f6CTb_NM24-47" value="Duration" style="swimlane;whiteSpace=wrap;html=1;" parent="1" vertex="1">
                    <mxGeometry x="400" y="550" width="140" height="98" as="geometry"/>
                </mxCell>
                <mxCell id="pvXdeUtD5-f6CTb_NM24-48" value="length" style="text;html=1;align=center;verticalAlign=middle;resizable=0;points=[];autosize=1;strokeColor=none;fillColor=none;" parent="pvXdeUtD5-f6CTb_NM24-47" vertex="1">
                    <mxGeometry x="40" y="38" width="60" height="30" as="geometry"/>
                </mxCell>
                <mxCell id="pvXdeUtD5-f6CTb_NM24-50" value="Calculations" style="swimlane;whiteSpace=wrap;html=1;" parent="1" vertex="1">
                    <mxGeometry x="40" y="730" width="315" height="140" as="geometry"/>
                </mxCell>
                <mxCell id="pvXdeUtD5-f6CTb_NM24-51" value="House price =&amp;nbsp;&lt;i style=&quot;border-color: var(--border-color);&quot;&gt;price * kv&lt;/i&gt;" style="text;html=1;align=center;verticalAlign=middle;resizable=0;points=[];autosize=1;strokeColor=none;fillColor=none;" parent="pvXdeUtD5-f6CTb_NM24-50" vertex="1">
                    <mxGeometry x="82.5" y="38" width="150" height="30" as="geometry"/>
                </mxCell>
                <mxCell id="pvXdeUtD5-f6CTb_NM24-52" value="Starting payment = &lt;i&gt;H price / 100 * 17&lt;/i&gt;" style="text;html=1;align=center;verticalAlign=middle;resizable=0;points=[];autosize=1;strokeColor=none;fillColor=none;" parent="pvXdeUtD5-f6CTb_NM24-50" vertex="1">
                    <mxGeometry x="47.5" y="68" width="220" height="30" as="geometry"/>
                </mxCell>
                <mxCell id="pvXdeUtD5-f6CTb_NM24-53" value="Monthly payment = &lt;i&gt;(H price - S payment) / duration * 12&lt;/i&gt;" style="text;html=1;align=center;verticalAlign=middle;resizable=0;points=[];autosize=1;strokeColor=none;fillColor=none;" parent="pvXdeUtD5-f6CTb_NM24-50" vertex="1">
                    <mxGeometry x="-5" y="98" width="320" height="30" as="geometry"/>
                </mxCell>
            </root>
        </mxGraphModel>
    </diagram>
</mxfile>